<?xml version="1.0" encoding="utf-8"?>
<!-- Generator: Adobe Illustrator 16.0.0, SVG Export Plug-In . SVG Version: 6.00 Build 0)  -->
<!DOCTYPE svg PUBLIC "-//W3C//DTD SVG 1.0//EN" "http://www.w3.org/TR/2001/REC-SVG-20010904/DTD/svg10.dtd">
<svg version="1.0" id="Calque_1" xmlns="http://www.w3.org/2000/svg" xmlns:xlink="http://www.w3.org/1999/xlink" x="0px" y="0px"
	 width="428.602px" height="395.28px" viewBox="206.644 40.466 428.602 395.28"
	 enable-background="new 206.644 40.466 428.602 395.28" xml:space="preserve">
<path d="M591.343,40.479c-5.447,0.152-10.877,1.539-15.924,4.465c-13.438,7.792-19.514,23.468-15.773,37.8l-55.512,29.615
	c-10.328-12.529-28.5-16.301-43.008-7.888c-5.955,3.453-10.398,8.551-13.246,14.287l-50.3-12.054
	c-0.128-5.499-1.66-11.127-4.613-16.222c-9.363-16.147-29.987-21.566-46.134-12.203c-13.811,8.008-19.733,24.193-15.329,38.842
	l-57.593,34.526c-10.537-10.979-27.622-13.777-41.372-5.804c-16.147,9.363-21.566,29.987-12.203,46.134s29.987,21.715,46.134,12.352
	c13.989-8.112,19.915-24.793,15.18-39.586l57.444-34.229c10.513,11.231,27.793,14.297,41.669,6.25
	c6.261-3.63,10.878-9.07,13.692-15.18l49.855,12.055c-0.025,5.802,1.492,11.732,4.613,17.114
	c9.363,16.147,29.986,21.566,46.135,12.203c13.162-7.632,19.193-22.672,15.922-36.759l55.66-30.062
	c10.385,12.197,28.361,15.613,42.711,7.292c16.146-9.363,21.566-29.987,12.203-46.134C615.117,46.195,603.328,40.145,591.343,40.479
	z M557.115,161.916c-3.988,0-7.59,3.601-7.59,7.59v258.65c0,3.988,3.602,7.59,7.59,7.59h70.541c3.99,0,7.59-3.602,7.59-7.59v-258.65
	c0-3.989-3.6-7.589-7.59-7.59H557.115z M328.527,197.484c-3.989,0-7.589,3.749-7.59,7.738v222.933c0,3.988,3.601,7.59,7.59,7.59
	h70.541c3.989,0,7.589-3.602,7.59-7.59V205.223c0-3.989-3.601-7.738-7.59-7.738H328.527z M442.822,221.891
	c-3.99,0-7.59,3.749-7.59,7.739v198.526c0,3.988,3.6,7.59,7.59,7.59h70.541c3.988,0,7.588-3.602,7.59-7.59V229.629
	c-0.002-3.99-3.602-7.738-7.59-7.739H442.822z M214.234,263.709c-3.99,0-7.589,3.601-7.59,7.59v156.857c0,3.988,3.6,7.59,7.59,7.59
	h70.541c3.99,0,7.589-3.602,7.59-7.59V271.299c0-3.989-3.6-7.589-7.59-7.59H214.234z"/>
</svg>
