<?xml version="1.0" encoding="utf-8"?>
<!-- Generator: Adobe Illustrator 16.0.0, SVG Export Plug-In . SVG Version: 6.00 Build 0)  -->
<!DOCTYPE svg PUBLIC "-//W3C//DTD SVG 1.0//EN" "http://www.w3.org/TR/2001/REC-SVG-20010904/DTD/svg10.dtd">
<svg version="1.0" id="matchs" xmlns="http://www.w3.org/2000/svg" xmlns:xlink="http://www.w3.org/1999/xlink" x="0px" y="0px"
	 width="179.217px" height="129.534px" viewBox="0 0 179.217 129.534" enable-background="new 0 0 179.217 129.534"
	 xml:space="preserve">
<path fill="#020202" d="M133.217,16.182c-11.045,0-20,8.955-20,20s8.955,20,20,20s20-8.955,20-20S144.262,16.182,133.217,16.182z
	 M133.217,48.682c-6.903,0-12.5-5.597-12.5-12.5s5.597-12.5,12.5-12.5s12.5,5.597,12.5,12.5S140.121,48.682,133.217,48.682z"/>
<path fill="#020202" d="M159.217,83.161c-11.045,0-20,8.954-20,20s8.955,20,20,20s20-8.954,20-20S170.262,83.161,159.217,83.161z
	 M159.217,115.661c-6.903,0-12.5-5.597-12.5-12.5s5.597-12.5,12.5-12.5s12.5,5.597,12.5,12.5S166.121,115.661,159.217,115.661z"/>
<rect x="-4.318" y="108.846" transform="matrix(0.7071 0.7071 -0.7071 0.7071 84.2674 20.2556)" width="43.999" height="6.011"/>
<rect x="-4.317" y="108.847" transform="matrix(-0.7071 0.7071 -0.7071 -0.7071 109.2797 178.4394)" width="44" height="6.011"/>
<rect x="-0.282" y="14.676" transform="matrix(0.7071 0.7071 -0.7071 0.7071 18.8627 -10.1779)" width="44" height="6.011"/>
<rect x="-0.282" y="14.676" transform="matrix(-0.7071 0.7071 -0.7071 -0.7071 49.5783 14.8271)" width="44" height="6.011"/>
<path d="M16.396,79.422c26.571-55.24,89.572-47.059,89.572-47.059v6.011c0,0-58.251-6.492-82.573,41.058L16.396,79.422z"/>
<path d="M20.396,47.441c14.968,61.49,111.823,55.72,111.823,55.72v-6.873c0,0-89.751,4.144-104.084-48.854L20.396,47.441z"/>
<polygon fill-rule="evenodd" clip-rule="evenodd" points="35.364,46.98 20.992,31.882 12.655,50.346 "/>
<polygon fill-rule="evenodd" clip-rule="evenodd" points="9.284,74.663 16.631,94.171 31.507,80.42 "/>
</svg>
